<svg width="504" height="527" viewBox="0 0 504 527" fill="none" xmlns="http://www.w3.org/2000/svg">
<path fill-rule="evenodd" clip-rule="evenodd" d="M206.636 5.78166C198.732 11.1421 195.298 16.6782 191.461 30.2586C190.246 34.556 188.241 35.5977 181.194 35.6025C169.304 35.6072 157.034 42.1969 150.27 52.2083C145.592 59.1373 144.821 62.7751 145.618 74.1581C146.403 85.356 145.908 87.8049 142.856 87.812C140.811 87.8167 135.586 89.9809 131.245 92.6196C117.224 101.148 110.848 123.558 117.66 140.363C118.861 143.325 117.267 144.929 111.109 146.958C90.6861 153.683 80.7848 180.632 91.8135 199.473L96.3705 207.259L84.1574 218.784C66.1125 235.81 58.4231 254.089 58.3946 280.011C58.3779 297.018 59.3911 302.367 64.8638 314.113C68.4314 321.775 71.345 329.25 71.3378 330.723C71.314 335.132 41.6411 381.042 22.8255 405.78C1.89083 433.301 0 436.604 0 445.64C0 464.97 20.9276 473.416 63.8768 471.415C79.1081 470.706 94.23 469.795 97.4836 469.391C103.137 468.693 103.482 469.386 105.232 484.953C109.162 519.845 117.008 525.485 161.731 525.561C207.373 525.637 219.439 518.815 222.576 491.156L224.184 476.966H233.01H241.836L244.764 493.308C249.295 518.608 256.273 523.784 288.945 526.066C313.761 527.803 333.345 523.779 343.282 514.907L350.814 508.179V463.504V418.828L358.278 404.591C373.378 375.781 380.537 340.49 380.542 294.842C380.544 274.591 381.427 263.4 383.025 263.4C387.573 263.4 444.933 239.735 466.999 228.753C478.97 222.799 491.392 216.663 494.608 215.118C501.903 211.616 503.684 205.368 503.984 182.243C504.276 159.726 500.628 141.794 494.658 136.403C492.175 134.16 485.551 131.804 479.94 131.166C471.361 130.188 469.166 128.814 466.167 122.547C461.888 113.606 452.246 111.712 439.041 117.218C429.994 120.988 425.734 128.24 425.734 139.87C425.734 146.353 425.092 146.69 402.956 151.791C390.429 154.682 379.712 156.58 379.144 156.01C378.575 155.443 380.19 150.275 382.733 144.528C390.757 126.394 393.59 104.752 390.196 87.5344C386.367 68.1237 380.378 56.6624 367.183 43.4973C345.924 22.2903 308.498 10.9262 276.584 15.9924C261.113 18.4484 260.223 18.3251 255.383 13.0547C242.483 -0.995461 221.296 -4.15623 206.636 5.78166ZM336.092 32.6648C350.869 39.5653 375.369 60.535 372.268 63.6293C371.545 64.3531 369.685 63.6792 368.136 62.1344C362.918 56.9281 350.389 58.7956 345.042 65.5799C342.331 69.0183 340.112 73.1733 340.112 74.813C340.112 76.4551 337.705 78.3606 334.76 79.0535C304.766 86.094 257.058 87.2472 254.977 80.9803C254.316 78.987 255.167 78.166 257.165 78.8708C258.963 79.5067 264.45 78.0165 269.354 75.5605C283.413 68.5223 280.047 56.8973 263.727 56.1237C254.47 55.6871 251.842 60.9479 260.266 63.0574C268.108 65.0199 267.953 66.7236 259.496 71.5217C252.979 75.2212 252.396 75.169 247.675 70.4587C240.411 63.2117 226.524 64.1134 219.474 72.2906C201.32 93.3481 230.731 119.961 249.732 99.6672C256.221 92.7382 256.991 92.5484 278.656 92.5484C298.337 92.5484 301.256 93.0966 303.884 97.2943C307.026 102.313 320.483 103.979 324.771 99.8808C327.844 96.9455 344.574 95.9939 352.598 98.3004C366.724 102.363 375.479 94.6319 376.037 77.606L376.287 70.0054L379.422 79.4972C387.175 102.97 380.801 135.81 363.791 160.04C353.464 174.745 353.787 181.671 364.407 173.335C367.877 170.614 384.148 165.227 402.276 160.804L434.059 153.047L434.782 140.487C435.386 129.97 436.38 127.597 440.892 125.884C452.182 121.603 457.181 122.013 459.198 127.395C460.825 131.733 459.8 133.368 452.915 137.421C440.816 144.542 439.279 150.913 442.136 182.091C444.878 212.029 446.902 217.569 455.921 219.828C462.055 221.364 461.967 221.506 451.659 226.734C437.957 233.682 386.081 253.909 381.964 253.909C379.76 253.909 378.268 248.726 377.117 237.056C375.122 216.86 374.023 213.569 369.273 213.569C366.353 213.569 365.946 215.526 367.19 223.654C371.454 251.552 373.233 295.725 371.1 320.814C368.184 355.146 363.541 373.315 350.905 399.845L340.73 421.201L341.922 458.362C342.578 478.797 342.383 498.422 341.491 501.967L339.869 508.414L334.639 503.654C330.377 499.774 326.001 498.873 311.014 498.778C291.649 498.657 290.394 499.3 281.805 513.73C279.712 517.244 278.071 517.434 269.566 515.149C261.279 512.923 259.146 511.022 255.926 502.994C253.828 497.762 252.111 489.886 252.111 485.491C252.111 477.782 252.503 477.445 263.408 475.815C276.58 473.843 283.743 470.544 281.767 467.355C280.999 466.114 278.026 465.053 275.16 464.996C270.907 464.911 271.523 464.061 278.516 460.374C309.906 443.823 338.245 384.753 341.681 328.718C344.733 278.969 332.594 247.872 305.044 234.868C287.92 226.784 260.262 227.154 242.331 235.711C203.62 254.179 173.578 316.115 173.652 377.302C173.69 409.666 180.297 425.952 202.024 447.214L214.056 458.99V477.314C214.056 487.395 212.953 498.536 211.604 502.071L209.154 508.504L203.722 503.414C198.202 498.241 184.607 496.4 182.079 500.486C181.291 501.753 177.826 501.552 173.7 499.997C163.665 496.22 154.242 500.061 149.839 509.722C146.491 517.071 145.706 517.467 137.055 516.167C131.985 515.405 125.982 513.791 123.715 512.581C117.695 509.366 114.261 494.243 111.048 456.826C108.541 427.637 107.666 423.534 103.779 422.786C99.7193 422.006 99.4315 423.451 100.221 440.553L101.082 459.168L79.7217 462.538C45.613 467.92 12.4105 461.333 8.28636 448.367C6.44785 442.589 8.10797 439.715 30.2818 410.317C40.5327 396.727 55.7117 374.713 64.0147 361.401L79.1104 337.194L87.1376 343.302C99.177 352.464 113.462 353.266 128.978 345.654C146.277 337.163 166.488 319.096 166.488 312.122C166.488 309.101 164.371 301.977 161.784 296.287C159.196 290.599 157.055 283.542 157.027 280.604C156.989 276.77 155.559 275.265 151.954 275.265C147.449 275.265 147.102 276.172 148.584 284.052C149.492 288.886 152.363 296.999 154.96 302.079C160.262 312.449 159.634 314.82 152.577 311.052C145.023 307.018 140.471 307.979 133.317 315.114C129.663 318.761 125.644 321.4 124.388 320.982C120 319.523 109.407 330.106 109.407 335.948C109.407 345.841 98.5087 343.592 86.6595 331.252C72.175 316.17 65.8437 297.991 67.1613 275.265C68.9499 244.436 85.7985 221.357 117.07 206.894C129.411 201.187 130.727 199.896 129.606 194.585C128.855 191.033 131.171 181.37 135.379 170.502C165.144 93.5901 210.703 41.5538 260.882 27.15C268.229 25.0405 280.913 24.1198 296.313 24.5778C317.322 25.2042 322.262 26.208 336.092 32.6648ZM320.05 56.7834C314.687 62.6968 317.105 70.7007 324.842 72.637C331.92 74.4096 337.733 70.098 337.733 63.0717C337.733 52.4219 327.354 48.732 320.05 56.7834ZM491.078 147.007C493.688 152.041 494.708 161.359 494.708 180.146C494.708 202.644 494.128 206.58 490.546 208.415C484.095 211.715 466.754 213.806 459.95 212.102L453.816 210.567L459.99 204.853C466.374 198.947 468.712 184.569 463.781 181.529C462.188 180.547 462.188 178.584 463.781 175.613C465.094 173.169 466.167 169.297 466.167 167.011C466.167 161.957 457.082 151.872 452.532 151.872C450.719 151.872 449.965 150.7 450.852 149.264C453.628 144.786 466.921 140.197 477.403 140.1C486.167 140.019 487.915 140.902 491.078 147.007ZM456.259 168.34C456.798 172.021 456.037 173.423 453.88 172.714C452.134 172.139 450.351 169.232 449.913 166.252C449.373 162.572 450.134 161.169 452.291 161.879C454.037 162.453 455.821 165.36 456.259 168.34ZM457.843 190.629C457.843 196.816 453.179 196.426 452.291 190.169C451.747 186.327 452.494 184.896 454.67 185.62C456.416 186.201 457.843 188.456 457.843 190.629ZM149.839 319.378C149.839 320.147 147.435 322.719 144.495 325.095C138.649 329.817 133.764 326.566 138.375 321.025C140.897 317.992 149.839 316.709 149.839 319.378ZM128.434 332.251C131.604 334.33 131.604 334.847 128.434 336.926C124.124 339.748 116.542 340.075 116.542 337.436C116.542 335.265 121.593 329.824 123.558 329.879C124.276 329.9 126.472 330.968 128.434 332.251ZM171.652 509.368C178.245 515.319 176.951 517.306 166.488 517.306C156.19 517.306 153.419 512.488 161.137 508.004C166.617 504.819 166.614 504.819 171.652 509.368ZM197.374 508.96C199.805 511.881 199.22 512.892 193.945 514.892C182.906 519.081 181.26 518.122 185.599 510.03C188.538 504.553 193.345 504.117 197.374 508.96ZM306.305 512.097C309.661 517.137 309.494 517.306 301.158 517.306C292.22 517.306 289.951 513.722 295.429 508.26C299.115 504.579 301.974 505.588 306.305 512.097ZM328.267 509.057C331.813 513.321 331.452 513.777 322.868 515.83C315.797 517.524 313.873 513.585 319.182 508.288C322.928 504.551 324.64 504.696 328.267 509.057Z" fill="white"/>
</svg>
